<svg width="18" height="18" viewBox="0 0 18 18" fill="none" xmlns="http://www.w3.org/2000/svg">
<path d="M10 2C10.5521 2.00023 11 2.39189 11 2.875V7.22168H12.3691L12.4658 7.23047C12.6864 7.26831 12.8757 7.43306 12.958 7.66797C13.0519 7.93655 12.9866 8.24166 12.7939 8.43555L9.42578 11.8184C9.18495 12.0602 8.81611 12.0601 8.5752 11.8184L5.20703 8.43555C5.0142 8.24166 4.94897 7.93667 5.04297 7.66797C5.1371 7.39936 5.37108 7.22178 5.63184 7.22168H7V2.875C7 2.39175 7.44772 2 8 2H10Z" fill="#171A1C"/>
<path d="M5 14H13" stroke="#171A1C" stroke-width="1.5" stroke-linecap="round"/>
</svg>
