<svg width="20" height="20" viewBox="0 0 20 20" fill="none" xmlns="http://www.w3.org/2000/svg">
<path d="M11.1104 17.7778C11.7238 17.7776 12.2216 17.3429 12.2217 16.8062V11.9761H13.7441L13.8506 11.9673C14.0958 11.9254 14.3069 11.7421 14.3984 11.481C14.5027 11.1825 14.4309 10.8428 14.2168 10.6274L10.4736 6.86865C10.2061 6.59999 9.796 6.60028 9.52832 6.86865L5.78613 10.6274C5.57191 10.8428 5.49915 11.1824 5.60352 11.481C5.70806 11.7794 5.9681 11.9759 6.25781 11.9761H7.77734V16.8062C7.77741 17.343 8.27506 17.7778 8.88867 17.7778H11.1104Z" fill="white"/>
<path d="M5.55469 4.44434H14.4436" stroke="white" stroke-width="1.5" stroke-linecap="round"/>
</svg>
