<svg width="21" height="20" viewBox="0 0 21 20" fill="none" xmlns="http://www.w3.org/2000/svg">
<path d="M11.6094 2.22217C12.2228 2.22238 12.7206 2.65709 12.7207 3.19385V8.02393H14.2422L14.3496 8.03271C14.5947 8.07464 14.805 8.25806 14.8965 8.51904C15.0007 8.8175 14.929 9.15723 14.7148 9.37256L10.9717 13.1313C10.7042 13.3997 10.2949 13.3995 10.0273 13.1313L6.28418 9.37256C6.06995 9.15716 5.99817 8.81756 6.10254 8.51904C6.20717 8.2205 6.46701 8.02393 6.75684 8.02393H8.27637V3.19385C8.27643 2.65707 8.77329 2.22236 9.38672 2.22217H11.6094Z" fill="white"/>
<path d="M6.05469 15.5557H14.9436" stroke="white" stroke-width="1.5" stroke-linecap="round"/>
</svg>
