<svg width="16" height="15" viewBox="0 0 16 15" fill="none" xmlns="http://www.w3.org/2000/svg">
<path d="M2 4.5H14C14.8284 4.5 15.5 5.17157 15.5 6V9.5H0.5V6C0.5 5.17157 1.17157 4.5 2 4.5Z" fill="#171A1C" stroke="#171A1C"/>
<mask id="path-2-inside-1_819_7031" fill="white">
<path d="M4 1C4 0.447715 4.44772 0 5 0H11C11.5523 0 12 0.447715 12 1V5H4V1Z"/>
</mask>
<path d="M4 1C4 0.447715 4.44772 0 5 0H11C11.5523 0 12 0.447715 12 1V5H4V1Z" stroke="#171A1C" stroke-width="3" mask="url(#path-2-inside-1_819_7031)"/>
<rect x="4.75" y="8.75" width="6.5" height="5.5" fill="white" stroke="#171A1C" stroke-width="1.5"/>
<circle cx="12.5" cy="6.5" r="0.5" fill="white"/>
</svg>
