<svg width="18" height="18" viewBox="0 0 18 18" fill="none" xmlns="http://www.w3.org/2000/svg">
<path d="M8 12C7.44783 11.9999 7 11.6082 7 11.125V6.77832H5.63086L5.53418 6.76953C5.31354 6.73177 5.12429 6.56702 5.04199 6.33203C4.948 6.06338 5.01331 5.75835 5.20605 5.56445L8.57422 2.18164C8.81509 1.93975 9.18389 1.93983 9.4248 2.18164L12.793 5.56445C12.9858 5.75834 13.051 6.06333 12.957 6.33203C12.8629 6.60067 12.6289 6.77821 12.3682 6.77832H11V11.125C11 11.6082 10.5523 12 10 12H8Z" fill="#171A1C"/>
<path d="M13 14H5" stroke="#171A1C" stroke-width="1.5" stroke-linecap="round"/>
</svg>
